<mxfile host="app.diagrams.net" agent="Mozilla/5.0 (Macintosh; Intel Mac OS X 10_15_7) AppleWebKit/537.36 (KHTML, like Gecko) Chrome/131.0.0.0 Safari/537.36" version="26.0.6">
  <diagram name="Страница — 1" id="K9feuQ7dF-jCnu2IWgrX">
    <mxGraphModel dx="6330" dy="4215" grid="1" gridSize="10" guides="1" tooltips="1" connect="1" arrows="1" fold="1" page="0" pageScale="1" pageWidth="827" pageHeight="1169" math="0" shadow="0">
      <root>
        <mxCell id="0" />
        <mxCell id="1" parent="0" />
        <mxCell id="oubO38BTLlarIKI2RHfu-87" value="&lt;span style=&quot;font-size: 24px;&quot;&gt;Model&lt;/span&gt;" style="rounded=1;whiteSpace=wrap;html=1;" vertex="1" parent="1">
          <mxGeometry x="80" y="-1040" width="230" height="170" as="geometry" />
        </mxCell>
        <mxCell id="oubO38BTLlarIKI2RHfu-104" value="" style="swimlane;startSize=0;" vertex="1" parent="1">
          <mxGeometry x="1320" y="-1100" width="1920" height="1170" as="geometry" />
        </mxCell>
        <mxCell id="oubO38BTLlarIKI2RHfu-91" value="&lt;span style=&quot;font-size: 24px;&quot;&gt;Worker Report&lt;/span&gt;" style="rounded=1;whiteSpace=wrap;html=1;" vertex="1" parent="oubO38BTLlarIKI2RHfu-104">
          <mxGeometry x="1464" y="220" width="230" height="170" as="geometry" />
        </mxCell>
        <mxCell id="oubO38BTLlarIKI2RHfu-92" value="&lt;span style=&quot;font-size: 24px;&quot;&gt;Client Feedback&lt;/span&gt;" style="rounded=1;whiteSpace=wrap;html=1;" vertex="1" parent="oubO38BTLlarIKI2RHfu-104">
          <mxGeometry x="1464" y="790" width="230" height="170" as="geometry" />
        </mxCell>
        <mxCell id="oubO38BTLlarIKI2RHfu-86" value="&lt;span style=&quot;font-size: 24px;&quot;&gt;Task&lt;/span&gt;" style="rounded=1;whiteSpace=wrap;html=1;" vertex="1" parent="oubO38BTLlarIKI2RHfu-104">
          <mxGeometry x="790" y="450" width="230" height="170" as="geometry" />
        </mxCell>
        <mxCell id="oubO38BTLlarIKI2RHfu-96" style="edgeStyle=orthogonalEdgeStyle;rounded=0;orthogonalLoop=1;jettySize=auto;html=1;exitX=1;exitY=0.25;exitDx=0;exitDy=0;entryX=0;entryY=0.5;entryDx=0;entryDy=0;" edge="1" parent="oubO38BTLlarIKI2RHfu-104" source="oubO38BTLlarIKI2RHfu-86" target="oubO38BTLlarIKI2RHfu-91">
          <mxGeometry relative="1" as="geometry" />
        </mxCell>
        <mxCell id="oubO38BTLlarIKI2RHfu-108" value="&lt;font style=&quot;font-size: 18px;&quot;&gt;has many&lt;/font&gt;" style="edgeLabel;html=1;align=center;verticalAlign=middle;resizable=0;points=[];" vertex="1" connectable="0" parent="oubO38BTLlarIKI2RHfu-96">
          <mxGeometry x="0.2741" y="-1" relative="1" as="geometry">
            <mxPoint as="offset" />
          </mxGeometry>
        </mxCell>
        <mxCell id="oubO38BTLlarIKI2RHfu-97" style="edgeStyle=orthogonalEdgeStyle;rounded=0;orthogonalLoop=1;jettySize=auto;html=1;exitX=1;exitY=0.75;exitDx=0;exitDy=0;entryX=0;entryY=0.5;entryDx=0;entryDy=0;" edge="1" parent="oubO38BTLlarIKI2RHfu-104" source="oubO38BTLlarIKI2RHfu-86" target="oubO38BTLlarIKI2RHfu-92">
          <mxGeometry relative="1" as="geometry" />
        </mxCell>
        <mxCell id="oubO38BTLlarIKI2RHfu-109" value="&lt;font style=&quot;font-size: 18px;&quot;&gt;has one&lt;/font&gt;" style="edgeLabel;html=1;align=center;verticalAlign=middle;resizable=0;points=[];" vertex="1" connectable="0" parent="oubO38BTLlarIKI2RHfu-97">
          <mxGeometry x="-0.4218" y="-5" relative="1" as="geometry">
            <mxPoint as="offset" />
          </mxGeometry>
        </mxCell>
        <mxCell id="oubO38BTLlarIKI2RHfu-90" value="&lt;span style=&quot;font-size: 24px;&quot;&gt;Task Type&lt;/span&gt;" style="rounded=1;whiteSpace=wrap;html=1;" vertex="1" parent="oubO38BTLlarIKI2RHfu-104">
          <mxGeometry x="790" y="810" width="230" height="170" as="geometry" />
        </mxCell>
        <mxCell id="oubO38BTLlarIKI2RHfu-95" value="&lt;font style=&quot;font-size: 18px;&quot;&gt;has one&lt;/font&gt;" style="edgeStyle=orthogonalEdgeStyle;rounded=0;orthogonalLoop=1;jettySize=auto;html=1;entryX=0.5;entryY=0;entryDx=0;entryDy=0;" edge="1" parent="oubO38BTLlarIKI2RHfu-104" source="oubO38BTLlarIKI2RHfu-86" target="oubO38BTLlarIKI2RHfu-90">
          <mxGeometry relative="1" as="geometry" />
        </mxCell>
        <mxCell id="oubO38BTLlarIKI2RHfu-89" value="&lt;span style=&quot;font-size: 24px;&quot;&gt;Worker&lt;/span&gt;" style="rounded=1;whiteSpace=wrap;html=1;" vertex="1" parent="oubO38BTLlarIKI2RHfu-104">
          <mxGeometry x="160" y="640" width="230" height="170" as="geometry" />
        </mxCell>
        <mxCell id="oubO38BTLlarIKI2RHfu-94" style="edgeStyle=orthogonalEdgeStyle;rounded=0;orthogonalLoop=1;jettySize=auto;html=1;entryX=0;entryY=0.75;entryDx=0;entryDy=0;" edge="1" parent="oubO38BTLlarIKI2RHfu-104" source="oubO38BTLlarIKI2RHfu-89" target="oubO38BTLlarIKI2RHfu-86">
          <mxGeometry relative="1" as="geometry" />
        </mxCell>
        <mxCell id="oubO38BTLlarIKI2RHfu-107" value="&lt;font style=&quot;font-size: 18px;&quot;&gt;has many&lt;/font&gt;" style="edgeLabel;html=1;align=center;verticalAlign=middle;resizable=0;points=[];" vertex="1" connectable="0" parent="oubO38BTLlarIKI2RHfu-94">
          <mxGeometry x="-0.2953" y="-1" relative="1" as="geometry">
            <mxPoint x="-1" as="offset" />
          </mxGeometry>
        </mxCell>
        <mxCell id="oubO38BTLlarIKI2RHfu-88" value="&lt;span style=&quot;font-size: 24px;&quot;&gt;Client&lt;/span&gt;&lt;span style=&quot;color: rgba(0, 0, 0, 0); font-family: monospace; font-size: 0px; text-align: start; text-wrap-mode: nowrap;&quot;&gt;%3CmxGraphModel%3E%3Croot%3E%3CmxCell%20id%3D%220%22%2F%3E%3CmxCell%20id%3D%221%22%20parent%3D%220%22%2F%3E%3CmxCell%20id%3D%222%22%20value%3D%22%26lt%3Bspan%20style%3D%26quot%3Bfont-size%3A%2024px%3B%26quot%3B%26gt%3BTask%26lt%3B%2Fspan%26gt%3B%22%20style%3D%22rounded%3D1%3BwhiteSpace%3Dwrap%3Bhtml%3D1%3B%22%20vertex%3D%221%22%20parent%3D%221%22%3E%3CmxGeometry%20x%3D%222510%22%20y%3D%22-430%22%20width%3D%22230%22%20height%3D%22170%22%20as%3D%22geometry%22%2F%3E%3C%2FmxCell%3E%3C%2Froot%3E%3C%2FmxGraphModel%3E&lt;/span&gt;" style="rounded=1;whiteSpace=wrap;html=1;" vertex="1" parent="oubO38BTLlarIKI2RHfu-104">
          <mxGeometry x="160" y="356" width="230" height="170" as="geometry" />
        </mxCell>
        <mxCell id="oubO38BTLlarIKI2RHfu-93" style="edgeStyle=orthogonalEdgeStyle;rounded=0;orthogonalLoop=1;jettySize=auto;html=1;entryX=0;entryY=0.25;entryDx=0;entryDy=0;" edge="1" parent="oubO38BTLlarIKI2RHfu-104" source="oubO38BTLlarIKI2RHfu-88" target="oubO38BTLlarIKI2RHfu-86">
          <mxGeometry relative="1" as="geometry" />
        </mxCell>
        <mxCell id="oubO38BTLlarIKI2RHfu-106" value="&lt;font style=&quot;font-size: 18px;&quot;&gt;has many&lt;/font&gt;" style="edgeLabel;html=1;align=center;verticalAlign=middle;resizable=0;points=[];" vertex="1" connectable="0" parent="oubO38BTLlarIKI2RHfu-93">
          <mxGeometry x="-0.0829" y="-4" relative="1" as="geometry">
            <mxPoint y="1" as="offset" />
          </mxGeometry>
        </mxCell>
        <mxCell id="oubO38BTLlarIKI2RHfu-77" value="&lt;font style=&quot;font-size: 36px;&quot;&gt;Заказы&lt;/font&gt;" style="text;html=1;align=center;verticalAlign=middle;whiteSpace=wrap;rounded=0;" vertex="1" parent="oubO38BTLlarIKI2RHfu-104">
          <mxGeometry x="940" y="70" width="60" height="30" as="geometry" />
        </mxCell>
        <mxCell id="oubO38BTLlarIKI2RHfu-110" value="" style="swimlane;startSize=0;" vertex="1" parent="1">
          <mxGeometry x="4110" y="-1110" width="1530" height="1170" as="geometry" />
        </mxCell>
        <mxCell id="oubO38BTLlarIKI2RHfu-79" value="&lt;font style=&quot;font-size: 36px;&quot;&gt;Биллинг&lt;/font&gt;" style="text;html=1;align=center;verticalAlign=middle;whiteSpace=wrap;rounded=0;" vertex="1" parent="oubO38BTLlarIKI2RHfu-110">
          <mxGeometry x="799" y="50" width="60" height="30" as="geometry" />
        </mxCell>
        <mxCell id="oubO38BTLlarIKI2RHfu-111" value="&lt;span style=&quot;font-size: 24px;&quot;&gt;Transaction&lt;/span&gt;" style="rounded=1;whiteSpace=wrap;html=1;" vertex="1" parent="oubO38BTLlarIKI2RHfu-110">
          <mxGeometry x="799" y="475" width="230" height="170" as="geometry" />
        </mxCell>
        <mxCell id="oubO38BTLlarIKI2RHfu-113" style="edgeStyle=orthogonalEdgeStyle;rounded=0;orthogonalLoop=1;jettySize=auto;html=1;" edge="1" parent="oubO38BTLlarIKI2RHfu-110" source="oubO38BTLlarIKI2RHfu-112" target="oubO38BTLlarIKI2RHfu-111">
          <mxGeometry relative="1" as="geometry" />
        </mxCell>
        <mxCell id="oubO38BTLlarIKI2RHfu-114" value="&lt;font style=&quot;font-size: 18px;&quot;&gt;has many&lt;/font&gt;" style="edgeLabel;html=1;align=center;verticalAlign=middle;resizable=0;points=[];" vertex="1" connectable="0" parent="oubO38BTLlarIKI2RHfu-113">
          <mxGeometry x="0.1546" y="-4" relative="1" as="geometry">
            <mxPoint as="offset" />
          </mxGeometry>
        </mxCell>
        <mxCell id="oubO38BTLlarIKI2RHfu-112" value="&lt;span style=&quot;font-size: 24px;&quot;&gt;Invoice&lt;/span&gt;" style="rounded=1;whiteSpace=wrap;html=1;" vertex="1" parent="oubO38BTLlarIKI2RHfu-110">
          <mxGeometry x="360" y="475" width="260" height="170" as="geometry" />
        </mxCell>
        <mxCell id="oubO38BTLlarIKI2RHfu-115" value="" style="swimlane;startSize=0;" vertex="1" parent="1">
          <mxGeometry x="3960" y="610" width="1780" height="1110" as="geometry" />
        </mxCell>
        <mxCell id="oubO38BTLlarIKI2RHfu-75" value="&lt;font style=&quot;font-size: 36px;&quot;&gt;Тотализатор&lt;/font&gt;" style="text;html=1;align=center;verticalAlign=middle;whiteSpace=wrap;rounded=0;" vertex="1" parent="oubO38BTLlarIKI2RHfu-115">
          <mxGeometry x="860" y="70" width="60" height="30" as="geometry" />
        </mxCell>
        <mxCell id="oubO38BTLlarIKI2RHfu-122" style="edgeStyle=orthogonalEdgeStyle;rounded=0;orthogonalLoop=1;jettySize=auto;html=1;entryX=0;entryY=0.5;entryDx=0;entryDy=0;" edge="1" parent="oubO38BTLlarIKI2RHfu-115" source="oubO38BTLlarIKI2RHfu-116" target="oubO38BTLlarIKI2RHfu-118">
          <mxGeometry relative="1" as="geometry" />
        </mxCell>
        <mxCell id="oubO38BTLlarIKI2RHfu-125" value="&lt;font style=&quot;font-size: 18px;&quot;&gt;has many&lt;/font&gt;" style="edgeLabel;html=1;align=center;verticalAlign=middle;resizable=0;points=[];" vertex="1" connectable="0" parent="oubO38BTLlarIKI2RHfu-122">
          <mxGeometry x="-0.245" y="-2" relative="1" as="geometry">
            <mxPoint y="-2" as="offset" />
          </mxGeometry>
        </mxCell>
        <mxCell id="oubO38BTLlarIKI2RHfu-116" value="&lt;span style=&quot;font-size: 24px;&quot;&gt;Manager&lt;/span&gt;" style="rounded=1;whiteSpace=wrap;html=1;" vertex="1" parent="oubO38BTLlarIKI2RHfu-115">
          <mxGeometry x="300" y="460" width="230" height="170" as="geometry" />
        </mxCell>
        <mxCell id="oubO38BTLlarIKI2RHfu-124" value="&lt;font style=&quot;font-size: 18px;&quot;&gt;has one&lt;/font&gt;" style="edgeStyle=orthogonalEdgeStyle;rounded=0;orthogonalLoop=1;jettySize=auto;html=1;entryX=0;entryY=0.5;entryDx=0;entryDy=0;" edge="1" parent="oubO38BTLlarIKI2RHfu-115" source="oubO38BTLlarIKI2RHfu-118" target="oubO38BTLlarIKI2RHfu-121">
          <mxGeometry relative="1" as="geometry" />
        </mxCell>
        <mxCell id="oubO38BTLlarIKI2RHfu-118" value="&lt;span style=&quot;font-size: 24px;&quot;&gt;Bet&lt;/span&gt;" style="rounded=1;whiteSpace=wrap;html=1;" vertex="1" parent="oubO38BTLlarIKI2RHfu-115">
          <mxGeometry x="739" y="660" width="230" height="170" as="geometry" />
        </mxCell>
        <mxCell id="oubO38BTLlarIKI2RHfu-123" style="edgeStyle=orthogonalEdgeStyle;rounded=0;orthogonalLoop=1;jettySize=auto;html=1;" edge="1" parent="oubO38BTLlarIKI2RHfu-115" source="oubO38BTLlarIKI2RHfu-120" target="oubO38BTLlarIKI2RHfu-118">
          <mxGeometry relative="1" as="geometry" />
        </mxCell>
        <mxCell id="oubO38BTLlarIKI2RHfu-126" value="&lt;font style=&quot;font-size: 18px;&quot;&gt;has many&lt;/font&gt;" style="edgeLabel;html=1;align=center;verticalAlign=middle;resizable=0;points=[];" vertex="1" connectable="0" parent="oubO38BTLlarIKI2RHfu-123">
          <mxGeometry x="-0.3227" y="-2" relative="1" as="geometry">
            <mxPoint y="-1" as="offset" />
          </mxGeometry>
        </mxCell>
        <mxCell id="oubO38BTLlarIKI2RHfu-120" value="&lt;span style=&quot;font-size: 24px;&quot;&gt;Task&lt;/span&gt;" style="rounded=1;whiteSpace=wrap;html=1;shadow=1;strokeColor=#009900;" vertex="1" parent="oubO38BTLlarIKI2RHfu-115">
          <mxGeometry x="740" y="240" width="230" height="170" as="geometry" />
        </mxCell>
        <mxCell id="oubO38BTLlarIKI2RHfu-121" value="&lt;span style=&quot;font-size: 24px;&quot;&gt;Bet Result&lt;/span&gt;" style="rounded=1;whiteSpace=wrap;html=1;" vertex="1" parent="oubO38BTLlarIKI2RHfu-115">
          <mxGeometry x="1200" y="660" width="230" height="170" as="geometry" />
        </mxCell>
        <mxCell id="oubO38BTLlarIKI2RHfu-119" value="&lt;span style=&quot;font-size: 24px;&quot;&gt;Read Model&lt;/span&gt;" style="rounded=1;whiteSpace=wrap;html=1;shadow=1;strokeColor=#009900;" vertex="1" parent="1">
          <mxGeometry x="80" y="-770" width="230" height="170" as="geometry" />
        </mxCell>
        <mxCell id="oubO38BTLlarIKI2RHfu-127" value="" style="swimlane;startSize=0;" vertex="1" parent="1">
          <mxGeometry x="5360" y="2230" width="1180" height="750" as="geometry" />
        </mxCell>
        <mxCell id="oubO38BTLlarIKI2RHfu-71" value="&lt;font style=&quot;font-size: 36px;&quot;&gt;Проверка качества&lt;/font&gt;" style="text;html=1;align=center;verticalAlign=middle;whiteSpace=wrap;rounded=0;" vertex="1" parent="oubO38BTLlarIKI2RHfu-127">
          <mxGeometry x="350" y="50" width="480" height="30" as="geometry" />
        </mxCell>
        <mxCell id="oubO38BTLlarIKI2RHfu-131" style="edgeStyle=orthogonalEdgeStyle;rounded=0;orthogonalLoop=1;jettySize=auto;html=1;entryX=0;entryY=0.5;entryDx=0;entryDy=0;" edge="1" parent="oubO38BTLlarIKI2RHfu-127" source="oubO38BTLlarIKI2RHfu-128" target="oubO38BTLlarIKI2RHfu-129">
          <mxGeometry relative="1" as="geometry" />
        </mxCell>
        <mxCell id="oubO38BTLlarIKI2RHfu-135" value="&lt;font style=&quot;font-size: 18px;&quot;&gt;has many&lt;/font&gt;" style="edgeLabel;html=1;align=center;verticalAlign=middle;resizable=0;points=[];" vertex="1" connectable="0" parent="oubO38BTLlarIKI2RHfu-131">
          <mxGeometry x="-0.1313" y="7" relative="1" as="geometry">
            <mxPoint y="1" as="offset" />
          </mxGeometry>
        </mxCell>
        <mxCell id="oubO38BTLlarIKI2RHfu-128" value="&lt;span style=&quot;font-size: 24px;&quot;&gt;Manager&lt;/span&gt;" style="rounded=1;whiteSpace=wrap;html=1;" vertex="1" parent="oubO38BTLlarIKI2RHfu-127">
          <mxGeometry x="100" y="170" width="230" height="170" as="geometry" />
        </mxCell>
        <mxCell id="oubO38BTLlarIKI2RHfu-129" value="&lt;span style=&quot;font-size: 24px;&quot;&gt;Report&lt;/span&gt;" style="rounded=1;whiteSpace=wrap;html=1;" vertex="1" parent="oubO38BTLlarIKI2RHfu-127">
          <mxGeometry x="620" y="500" width="230" height="170" as="geometry" />
        </mxCell>
        <mxCell id="oubO38BTLlarIKI2RHfu-134" style="edgeStyle=orthogonalEdgeStyle;rounded=0;orthogonalLoop=1;jettySize=auto;html=1;" edge="1" parent="oubO38BTLlarIKI2RHfu-127" source="oubO38BTLlarIKI2RHfu-130" target="oubO38BTLlarIKI2RHfu-129">
          <mxGeometry relative="1" as="geometry" />
        </mxCell>
        <mxCell id="oubO38BTLlarIKI2RHfu-137" value="&lt;font style=&quot;font-size: 18px;&quot;&gt;has many&lt;/font&gt;" style="edgeLabel;html=1;align=center;verticalAlign=middle;resizable=0;points=[];" vertex="1" connectable="0" parent="oubO38BTLlarIKI2RHfu-134">
          <mxGeometry x="-0.275" y="-2" relative="1" as="geometry">
            <mxPoint y="1" as="offset" />
          </mxGeometry>
        </mxCell>
        <mxCell id="oubO38BTLlarIKI2RHfu-130" value="&lt;span style=&quot;font-size: 24px;&quot;&gt;Task&lt;/span&gt;" style="rounded=1;whiteSpace=wrap;html=1;shadow=1;strokeColor=#009900;" vertex="1" parent="oubO38BTLlarIKI2RHfu-127">
          <mxGeometry x="620" y="170" width="230" height="170" as="geometry" />
        </mxCell>
        <mxCell id="oubO38BTLlarIKI2RHfu-138" value="" style="swimlane;startSize=0;" vertex="1" parent="1">
          <mxGeometry x="3340" y="3030" width="1760" height="1350" as="geometry" />
        </mxCell>
        <mxCell id="oubO38BTLlarIKI2RHfu-69" value="&lt;font style=&quot;font-size: 36px;&quot;&gt;Отдел расходников&lt;/font&gt;" style="text;html=1;align=center;verticalAlign=middle;whiteSpace=wrap;rounded=0;" vertex="1" parent="oubO38BTLlarIKI2RHfu-138">
          <mxGeometry x="600" y="50" width="560" height="30" as="geometry" />
        </mxCell>
        <mxCell id="oubO38BTLlarIKI2RHfu-143" style="edgeStyle=orthogonalEdgeStyle;rounded=0;orthogonalLoop=1;jettySize=auto;html=1;entryX=0;entryY=0.5;entryDx=0;entryDy=0;" edge="1" parent="oubO38BTLlarIKI2RHfu-138" source="oubO38BTLlarIKI2RHfu-139" target="oubO38BTLlarIKI2RHfu-141">
          <mxGeometry relative="1" as="geometry" />
        </mxCell>
        <mxCell id="oubO38BTLlarIKI2RHfu-139" value="&lt;span style=&quot;font-size: 24px;&quot;&gt;Employee&lt;/span&gt;" style="rounded=1;whiteSpace=wrap;html=1;" vertex="1" parent="oubO38BTLlarIKI2RHfu-138">
          <mxGeometry x="180" y="860" width="230" height="170" as="geometry" />
        </mxCell>
        <mxCell id="oubO38BTLlarIKI2RHfu-144" style="edgeStyle=orthogonalEdgeStyle;rounded=0;orthogonalLoop=1;jettySize=auto;html=1;entryX=0;entryY=0.5;entryDx=0;entryDy=0;" edge="1" parent="oubO38BTLlarIKI2RHfu-138" source="oubO38BTLlarIKI2RHfu-140" target="oubO38BTLlarIKI2RHfu-141">
          <mxGeometry relative="1" as="geometry" />
        </mxCell>
        <mxCell id="oubO38BTLlarIKI2RHfu-140" value="&lt;span style=&quot;font-size: 24px;&quot;&gt;Worker&lt;/span&gt;" style="rounded=1;whiteSpace=wrap;html=1;" vertex="1" parent="oubO38BTLlarIKI2RHfu-138">
          <mxGeometry x="180" y="220" width="230" height="170" as="geometry" />
        </mxCell>
        <mxCell id="oubO38BTLlarIKI2RHfu-145" style="edgeStyle=orthogonalEdgeStyle;rounded=0;orthogonalLoop=1;jettySize=auto;html=1;entryX=0;entryY=0.5;entryDx=0;entryDy=0;" edge="1" parent="oubO38BTLlarIKI2RHfu-138" source="oubO38BTLlarIKI2RHfu-141" target="oubO38BTLlarIKI2RHfu-142">
          <mxGeometry relative="1" as="geometry" />
        </mxCell>
        <mxCell id="oubO38BTLlarIKI2RHfu-141" value="&lt;span style=&quot;font-size: 24px;&quot;&gt;Task Items&lt;/span&gt;" style="rounded=1;whiteSpace=wrap;html=1;" vertex="1" parent="oubO38BTLlarIKI2RHfu-138">
          <mxGeometry x="610" y="540" width="230" height="170" as="geometry" />
        </mxCell>
        <mxCell id="oubO38BTLlarIKI2RHfu-142" value="&lt;span style=&quot;font-size: 24px;&quot;&gt;Item&lt;/span&gt;" style="rounded=1;whiteSpace=wrap;html=1;" vertex="1" parent="oubO38BTLlarIKI2RHfu-138">
          <mxGeometry x="1110" y="540" width="230" height="170" as="geometry" />
        </mxCell>
        <mxCell id="oubO38BTLlarIKI2RHfu-146" value="" style="swimlane;startSize=0;" vertex="1" parent="1">
          <mxGeometry x="170" y="1340" width="2890" height="1690" as="geometry" />
        </mxCell>
        <mxCell id="oubO38BTLlarIKI2RHfu-73" value="&lt;font style=&quot;font-size: 36px;&quot;&gt;Управление котами и воркерами&lt;/font&gt;" style="text;html=1;align=center;verticalAlign=middle;whiteSpace=wrap;rounded=0;" vertex="1" parent="oubO38BTLlarIKI2RHfu-146">
          <mxGeometry x="975.75" y="70" width="858.5" height="30" as="geometry" />
        </mxCell>
        <mxCell id="oubO38BTLlarIKI2RHfu-147" value="&lt;span style=&quot;font-size: 24px;&quot;&gt;Clien&lt;/span&gt;&lt;span style=&quot;font-size: 24px; background-color: transparent; color: light-dark(rgb(0, 0, 0), rgb(255, 255, 255));&quot;&gt;t&lt;/span&gt;" style="rounded=1;whiteSpace=wrap;html=1;" vertex="1" parent="oubO38BTLlarIKI2RHfu-146">
          <mxGeometry x="240.00000000000045" y="250" width="230" height="170" as="geometry" />
        </mxCell>
        <mxCell id="oubO38BTLlarIKI2RHfu-148" value="&lt;span style=&quot;font-size: 24px;&quot;&gt;Manager&lt;/span&gt;" style="rounded=1;whiteSpace=wrap;html=1;" vertex="1" parent="oubO38BTLlarIKI2RHfu-146">
          <mxGeometry x="240.00000000000045" y="570" width="230" height="170" as="geometry" />
        </mxCell>
        <mxCell id="oubO38BTLlarIKI2RHfu-155" value="&lt;font style=&quot;font-size: 18px;&quot;&gt;has one&lt;/font&gt;" style="edgeStyle=orthogonalEdgeStyle;rounded=0;orthogonalLoop=1;jettySize=auto;html=1;" edge="1" parent="oubO38BTLlarIKI2RHfu-146" source="oubO38BTLlarIKI2RHfu-149" target="oubO38BTLlarIKI2RHfu-151">
          <mxGeometry relative="1" as="geometry" />
        </mxCell>
        <mxCell id="oubO38BTLlarIKI2RHfu-149" value="&lt;span style=&quot;font-size: 24px;&quot;&gt;Worker&lt;/span&gt;" style="rounded=1;whiteSpace=wrap;html=1;" vertex="1" parent="oubO38BTLlarIKI2RHfu-146">
          <mxGeometry x="240.00000000000045" y="900" width="230" height="170" as="geometry" />
        </mxCell>
        <mxCell id="oubO38BTLlarIKI2RHfu-156" value="&lt;font style=&quot;font-size: 18px;&quot;&gt;has one&lt;/font&gt;" style="edgeStyle=orthogonalEdgeStyle;rounded=0;orthogonalLoop=1;jettySize=auto;html=1;entryX=0;entryY=0.5;entryDx=0;entryDy=0;" edge="1" parent="oubO38BTLlarIKI2RHfu-146" source="oubO38BTLlarIKI2RHfu-151" target="oubO38BTLlarIKI2RHfu-152">
          <mxGeometry relative="1" as="geometry" />
        </mxCell>
        <mxCell id="oubO38BTLlarIKI2RHfu-151" value="&lt;span style=&quot;font-size: 24px;&quot;&gt;Registration Request&lt;/span&gt;" style="rounded=1;whiteSpace=wrap;html=1;" vertex="1" parent="oubO38BTLlarIKI2RHfu-146">
          <mxGeometry x="760.0000000000005" y="900" width="230" height="170" as="geometry" />
        </mxCell>
        <mxCell id="oubO38BTLlarIKI2RHfu-158" value="&lt;font style=&quot;font-size: 18px;&quot;&gt;has one&lt;/font&gt;" style="edgeStyle=orthogonalEdgeStyle;rounded=0;orthogonalLoop=1;jettySize=auto;html=1;entryX=0.5;entryY=0;entryDx=0;entryDy=0;" edge="1" parent="oubO38BTLlarIKI2RHfu-146" source="oubO38BTLlarIKI2RHfu-152" target="oubO38BTLlarIKI2RHfu-153">
          <mxGeometry relative="1" as="geometry" />
        </mxCell>
        <mxCell id="oubO38BTLlarIKI2RHfu-152" value="&lt;span style=&quot;font-size: 24px;&quot;&gt;Registration Request Test&lt;/span&gt;" style="rounded=1;whiteSpace=wrap;html=1;" vertex="1" parent="oubO38BTLlarIKI2RHfu-146">
          <mxGeometry x="1200.0000000000005" y="900" width="230" height="170" as="geometry" />
        </mxCell>
        <mxCell id="oubO38BTLlarIKI2RHfu-153" value="&lt;span style=&quot;font-size: 24px;&quot;&gt;Test Result&lt;/span&gt;" style="rounded=1;whiteSpace=wrap;html=1;" vertex="1" parent="oubO38BTLlarIKI2RHfu-146">
          <mxGeometry x="1200.0000000000005" y="1240" width="230" height="170" as="geometry" />
        </mxCell>
        <mxCell id="oubO38BTLlarIKI2RHfu-154" value="&lt;span style=&quot;font-size: 24px;&quot;&gt;Worker Pool&lt;/span&gt;" style="rounded=1;whiteSpace=wrap;html=1;" vertex="1" parent="oubO38BTLlarIKI2RHfu-146">
          <mxGeometry x="2000.0000000000005" y="960" width="230" height="170" as="geometry" />
        </mxCell>
        <mxCell id="oubO38BTLlarIKI2RHfu-157" style="edgeStyle=orthogonalEdgeStyle;rounded=0;orthogonalLoop=1;jettySize=auto;html=1;entryX=1;entryY=0.5;entryDx=0;entryDy=0;" edge="1" parent="oubO38BTLlarIKI2RHfu-146" source="oubO38BTLlarIKI2RHfu-150" target="oubO38BTLlarIKI2RHfu-152">
          <mxGeometry relative="1" as="geometry" />
        </mxCell>
        <mxCell id="oubO38BTLlarIKI2RHfu-159" value="&lt;font style=&quot;font-size: 18px;&quot;&gt;has many&lt;/font&gt;" style="edgeLabel;html=1;align=center;verticalAlign=middle;resizable=0;points=[];" vertex="1" connectable="0" parent="oubO38BTLlarIKI2RHfu-157">
          <mxGeometry x="-0.1161" y="3" relative="1" as="geometry">
            <mxPoint y="2" as="offset" />
          </mxGeometry>
        </mxCell>
        <mxCell id="oubO38BTLlarIKI2RHfu-150" value="&lt;span style=&quot;font-size: 24px;&quot;&gt;Test&lt;/span&gt;" style="rounded=1;whiteSpace=wrap;html=1;" vertex="1" parent="oubO38BTLlarIKI2RHfu-146">
          <mxGeometry x="1990.0000000000005" y="340" width="230" height="170" as="geometry" />
        </mxCell>
      </root>
    </mxGraphModel>
  </diagram>
</mxfile>
